<svg xmlns="http://www.w3.org/2000/svg" version="1.1" xmlns:xlink="http://www.w3.org/1999/xlink" xmlns:svgjs="http://svgjs.dev/svgjs" width="100%" height="100%" viewBox="0 0 1000 600"><rect width="1000" height="600" x="0" y="0" fill="#ffff"/><g><circle r="166.66666666666666" cx="377.0960337320963" cy="399.3183465746903" fill="#ddc6b6" transform="matrix(0.5940231790832796,0,0,0.5940231790832796,0,62.79562756527861)"/><path d="M373.15955008106454 474.31833477981877L373.15955008106454 474.31833477981877Q363.56996844978016 474.31833477981877 356.0226125362693 473.2528257096761Q348.4456591485878 472.1873166395334 343.1181137978743 470.293078292613Q337.79056844716075 468.369242471522 335.2451856684865 466.23822433123655L335.2451856684865 466.23822433123655Q337.5833861279664 463.6632440783917 339.3888320523748 460.3779244454517Q341.19427797678327 457.06300733834104 342.79254158199734 452.59378873857577Q344.3908051872114 448.12457013881055 345.4563142573541 441.9386980371487L345.4563142573541 441.9386980371487L359.9590766009632 367.5602454463536Q361.88291242205423 356.9051547449265 366.44092344433136 351.57760939421297Q371.0285319407791 346.25006404349944 380.8252958912579 346.25006404349944L380.8252958912579 346.25006404349944Q386.8039856737253 346.25006404349944 390.32608510003035 348.58826450297926Q393.84818452633544 350.95606243662974 394.4697314839187 354.35977196625225L394.4697314839187 354.35977196625225Q388.9350038140107 357.1123370641209 387.12955788960227 362.6766622081995Q385.32411196519377 368.21138987810747 384.02182310168604 373.538935228821L384.02182310168604 373.538935228821L380.6181135720635 390.3798980319099L390.41487752254227 390.14311823854484Q403.20098636425473 389.72875360015604 410.89632964861875 385.88108195797406Q418.56207545881216 382.0630077899627 422.0841748851172 375.462771049912Q425.5766768372516 368.8329368356907 425.3694945180572 360.9600087063029L425.3694945180572 360.9600087063029Q425.3694945180572 349.0322266155387 415.45434067089593 343.0535368330713Q405.5687842979052 337.1044445247745 386.15284124197143 337.1044445247745L386.15284124197143 337.1044445247745Q376.14889497229825 337.1044445247745 366.23374112513693 339.44264498425434Q356.3185872779756 341.78084544373417 348.12008693271093 346.78281857857075Q339.9215865874462 351.78479171340734 335.00840587512147 360.10168195535465Q330.1248226369674 368.41857219730184 330.1248226369674 380.3463542880661L330.1248226369674 380.3463542880661Q329.91764031777296 386.1178617513391 331.1903317071101 390.91265256698125Q332.4630230964472 395.70744338262347 335.86673262606973 401.86371801011467L335.86673262606973 401.86371801011467Q333.73571448578434 403.7875538312056 330.6575771720387 404.76427047883647Q327.5498423841225 405.71138965229665 324.59009496705943 405.71138965229665L324.59009496705943 405.71138965229665Q318.81858750378643 405.71138965229665 314.4677588007037 402.72204476106293Q310.0873326234504 399.7326998698292 307.630742267288 394.1979721999213Q305.17415191112565 388.66324453001334 305.17415191112565 381.20468103901436L305.17415191112565 381.20468103901436Q305.17415191112565 365.8731894186276 315.2076956549695 352.9686906802326Q325.21164192464266 340.0641919418376 344.06523297133447 332.19126381244985Q362.94842149219687 324.318335683062 389.5861482457646 324.318335683062L389.5861482457646 324.318335683062Q402.99380404506036 324.318335683062 413.9744669623644 326.5381462458593Q424.9551298796684 328.7875542828273 432.8280580090561 333.13838298590997Q440.73058361261457 337.5188091631633 444.8742299965029 344.119045903214Q449.01787638039116 350.7192826432647 449.01787638039116 359.48013499777136L449.01787638039116 359.48013499777136Q449.01787638039116 367.1458808079647 445.5253744282568 373.9532998672098Q442.0032750019517 380.79031640062556 435.6102205810955 386.1178617513391Q429.21716616023923 391.4454071020526 419.83476684814923 394.84911663167514L419.83476684814923 394.84911663167514Q427.2933303391482 396.9801347719606 433.03524032825055 401.034988733337Q438.80674779152355 405.06024522054275 442.0920674244636 411.453299641399Q445.40698453157427 417.8463540622553 444.9926198931854 426.37042662339695L444.9926198931854 426.37042662339695Q444.54865778062594 438.7421708267206 438.5995654723292 447.7989979229336Q432.62087568986175 456.85582501914666 422.61692942018857 462.71612490493146Q412.58338567634473 468.5764247907164 399.7972768346322 471.4473797852676Q387.01116799291975 474.31833477981877 373.15955008106454 474.31833477981877ZM377.6287686808298 460.2595345487692L377.6287686808298 460.2595345487692Q390.6516573159073 460.2595345487692 399.7972768346322 455.7903159490039Q408.9724938275278 451.3210973492387 413.9744669623644 443.3297793231684Q418.97644009720096 435.33846129709804 418.97644009720096 425.3049175532542L418.97644009720096 425.3049175532542Q418.97644009720096 412.9627708241012 409.17967614672216 408.3751623276534Q399.3829121962434 403.7875538312056 377.86554847419484 403.3731891928168L377.86554847419484 403.3731891928168L368.8975138004937 449.3972615281476Q368.0391870495454 453.24493317032966 366.7664956602083 455.7903159490039Q365.4938042708711 458.33569872767816 364.0139305623396 459.8451699103804L364.0139305623396 459.8451699103804Q366.9736779794027 460.05235222957475 370.40698498319585 460.17074212625727Q373.81069451281843 460.2595345487692 377.6287686808298 460.2595345487692Z " fill="#262223" transform="matrix(0.5940231790832796,0,0,0.5940231790832796,0,62.79562756527861)"/><path d="M678.99388830227 445.6694431932324L678.99388830227 445.6694431932324Q671.6735086597333 445.6694431932324 665.9120987558852 444.856067677395Q660.1280950877081 444.0426921615576 656.0612175085209 442.59669124451335Q651.994339929334 441.1280965631403 650.0512761970558 439.50134553146546L650.0512761970558 439.50134553146546Q651.8361835790323 437.53568803485837 653.2144032030901 435.02778019435976Q654.5926228271479 432.4972785895323 655.8126861009041 429.085620175881Q657.0327493746602 425.6739617622297 657.8461248904975 420.951865017507L657.8461248904975 420.951865017507L668.9170694116177 364.17373525919066Q670.3856640929907 356.03998010081665 673.8651037996285 351.97310252162964Q677.3671372705951 347.90622494244263 684.8456732634335 347.90622494244263L684.8456732634335 347.90622494244263Q689.4096136578544 347.90622494244263 692.0982716129836 349.6911323244192Q694.7869295681128 351.4986334707245 695.2613986190179 354.0969163685384L695.2613986190179 354.0969163685384Q691.0363646895293 356.19813645111833 689.6581450654714 360.4457641449359Q688.2799254414136 364.6707980744246 687.2857998109457 368.73767565361163L687.2857998109457 368.73767565361163L684.6875169131317 381.5935275567083L692.1660529059701 381.41277744207775Q701.9265590960189 381.09646474147434 707.8009378215113 378.1592753787282Q713.6527227826748 375.24467978031083 716.341380737804 370.2062703349847Q719.0074449286043 365.1452671253298 718.8492885783025 359.13532581386454L718.8492885783025 359.13532581386454Q718.8492885783025 350.0300387893514 711.280377528149 345.46609839493044Q703.7340602423242 340.9247517648383 688.9125508426205 340.9247517648383L688.9125508426205 340.9247517648383Q681.2758584994804 340.9247517648383 673.7069474493269 342.70965914681483Q666.1380363991732 344.4945665287913 659.879563680091 348.3129127003614Q653.6210909610088 352.1312588719313 649.8705260824253 358.48010664832884Q646.1425549681705 364.8289544247263 646.1425549681705 373.93424144923944L646.1425549681705 373.93424144923944Q645.9843986178688 378.3400254933587 646.9559304840079 382.000215314627Q647.927462350147 385.6604051358953 650.5257452479609 390.35990811628915L650.5257452479609 390.35990811628915Q648.8989942162862 391.8285027976623 646.5492427260892 392.57409702051325Q644.1768974715635 393.29709747903536 641.9175210386818 393.29709747903536L641.9175210386818 393.29709747903536Q637.5117369945625 393.29709747903536 634.1904536382265 391.01512728182485Q630.8465765175616 388.7331570846144 628.9712940782698 384.50812315512565Q627.0960116389781 380.28308922563696 627.0960116389781 374.58946061477513L627.0960116389781 374.58946061477513Q627.0960116389781 362.8858906924481 634.7552977464469 353.03500944508403Q642.3919900895869 343.18412819771993 656.7842179670431 337.1741868862547Q671.1990396088281 331.16424557478945 691.5334275047633 331.16424557478945L691.5334275047633 331.16424557478945Q701.7684027457171 331.16424557478945 710.1506893117082 332.85877789945073Q718.5329758776991 334.5759039884408 724.5429171891644 337.89718734477685Q730.5754522649585 341.2410644654417 733.7385792709928 346.2794739107678Q736.9017062770271 351.31788335609394 736.9017062770271 358.0056375974237L736.9017062770271 358.0056375974237Q736.9017062770271 363.8574225585872 734.2356420862268 369.05398835421505Q731.5469841310976 374.2731479141717 726.6667310360732 378.3400254933587Q721.7864779410488 382.4069030725457 714.6242546488138 385.0051859703596L714.6242546488138 385.0051859703596Q720.3178832596757 386.6319370020344 724.701073539466 389.7272827150823Q729.1068575835853 392.8000346638014 731.614765424084 397.6802877588258Q734.1452670289115 402.56054085385017 733.828954328308 409.06754498054937L733.828954328308 409.06754498054937Q733.4900478633758 418.5117384699948 728.9487012332836 425.4254303546127Q724.3847608388627 432.33912223923056 716.7480684957227 436.81268757633626Q709.0887823882538 441.28625291344196 699.328276198205 443.4778480533372Q689.5677700081562 445.6694431932324 678.99388830227 445.6694431932324ZM682.4055467159212 434.9374051370445L682.4055467159212 434.9374051370445Q692.3468030206006 434.9374051370445 699.328276198205 431.5257467233932Q706.3323431401382 428.1140883097419 710.1506893117082 422.01377194096136Q713.9690354832782 415.91345557218085 713.9690354832782 408.254169464712L713.9690354832782 408.254169464712Q713.9690354832782 398.83256973959544 706.4904994904398 395.33053626862886Q699.0119634976015 391.8285027976623 682.5862968305519 391.5121900970588L682.5862968305519 391.5121900970588L675.7403862389203 426.64549362836874Q675.0851670733847 429.58268299111495 674.1136352072456 431.5257467233932Q673.1421033411065 433.4688104556714 672.0124151246656 434.6210924364411L672.0124151246656 434.6210924364411Q674.2717915575472 434.77924878674276 676.89266821969 434.869623844058Q679.490951117504 434.9374051370445 682.4055467159212 434.9374051370445ZM756.264562306823 445.35313049262896L756.264562306823 445.35313049262896Q751.0679965111951 445.35313049262896 748.130807148449 442.4159411298828Q745.2162115500316 439.50134553146546 745.2162115500316 434.2821859715088L745.2162115500316 434.2821859715088Q745.2162115500316 432.33912223923056 745.5325242506351 429.58268299111495Q745.8488369512385 426.8036499786705 746.3458997664725 423.79867932293786Q746.8429625817064 420.79370866720524 747.4078066899269 418.10505071207604Q747.9726507981472 415.4163927569469 748.2889634987507 413.47332902466866L748.2889634987507 413.47332902466866L759.3599080198709 359.13532581386454L777.9093885338293 357.1922620815863L764.2401611148953 425.17689894699566Q764.0820047645935 426.48733727806706 763.7430982996614 428.52077606766056Q763.4267855990579 430.55421485725407 763.4267855990579 432.02280953862714L763.4267855990579 432.02280953862714Q763.4267855990579 434.46293608613934 764.646848872814 435.9089370031836Q765.86691214657 437.3775316845567 768.3070386940823 437.53568803485837L768.3070386940823 437.53568803485837Q767.3355068279432 441.6025656140454 763.8334733569766 443.4778480533372Q760.33143988601 445.35313049262896 756.264562306823 445.35313049262896ZM772.6902289738728 344.81087922939474L772.6902289738728 344.81087922939474Q767.4936631782449 344.81087922939474 764.0820047645935 342.3029713888961Q760.6703463509423 339.7724697840686 760.6703463509423 334.7340603387425L760.6703463509423 334.7340603387425Q760.6703463509423 329.35674442848415 764.2401611148953 326.8488365879855Q767.8099758788483 324.318334983158 773.0291354388049 324.318334983158L773.0291354388049 324.318334983158Q778.2257012344328 324.318334983158 781.6373596480842 326.8488365879855Q785.0716118260642 329.35674442848415 785.0716118260642 334.4177476381391L785.0716118260642 334.4177476381391Q785.0716118260642 339.7724697840686 781.4792032977824 342.3029713888961Q777.9093885338293 344.81087922939474 772.6902289738728 344.81087922939474ZM803.4403422253922 445.5112868429307L803.4403422253922 445.5112868429307Q798.8989955953001 445.5112868429307 795.4647434173199 442.59669124451335Q792.0530850036687 439.65950188176714 792.0530850036687 434.1240296212071L792.0530850036687 434.1240296212071Q792.0530850036687 430.8705275578575 793.0246168698077 424.9283675393787Q794.0187425002757 419.00880128522874 795.3065870670182 412.321047043899Q796.6170253980896 405.65588656689806 797.9952450221474 399.55557019811755Q799.3734646462052 393.45525382933704 800.0286838117408 389.7272827150823L800.0286838117408 389.7272827150823L804.7507805564636 366.4557054564011L793.2053669844383 366.4557054564011L793.8379923856451 361.57545236137673Q801.6554348434157 358.6382629986306 809.2921271865557 353.7580099036062Q816.9514132940246 348.87775680858175 822.8031982551881 343.02597184741825L822.8031982551881 343.02597184741825L827.8416077005143 343.02597184741825L824.5881056371646 359.13532581386454L837.2858011899596 359.13532581386454L835.8172065085865 366.4557054564011L822.9613546054898 366.4557054564011L811.732253734068 421.76524053334435Q811.2577846831628 424.3635234311583 810.9188782182305 426.3969622207518Q810.6025655176271 428.4304010103453 810.4444091673254 430.2153083923218L810.4444091673254 430.2153083923218Q810.2862528170236 434.6210924364411 812.0711601990001 436.3156247611023Q813.8560675809767 438.0327508500924 818.5781643256994 437.06121898395327L818.5781643256994 437.06121898395327Q817.1095696443263 440.15656469700116 814.9179745044311 441.94147207897765Q812.7263793645359 443.72637946095415 809.7891900017896 444.63013003410686Q806.8520006390436 445.5112868429307 803.4403422253922 445.5112868429307ZM866.7254761104077 445.35313049262896L866.7254761104077 445.35313049262896Q857.4620327355929 445.35313049262896 850.7064972012768 441.8510970216624Q843.9509616669606 438.3490635506958 840.3811469030074 431.20943402278976Q836.7887383747257 424.04721073055487 836.7887383747257 413.1344225597364L836.7887383747257 413.1344225597364Q836.7887383747257 402.89944731878245 839.6355526801565 392.73225337081493Q842.4823669855874 382.5650594228474 848.1759955964492 374.2731479141717Q853.8696242073111 365.95864264116716 862.748973588536 360.92023319584104Q871.6057292054321 355.8818237505149 883.6482055926915 355.8818237505149L883.6482055926915 355.8818237505149Q889.9970533690889 355.8818237505149 895.035462814415 357.66673113249146Q900.0738722597412 359.45163851446796 903.0110616224873 363.51851609365497Q905.9256572209047 367.585393672842 905.9256572209047 374.58946061477513L905.9256572209047 374.58946061477513Q905.9256572209047 384.0336541042205 900.3224036673581 390.4502831736045Q894.6965563494828 396.8669122429884 885.4331129746679 400.21078936365325Q876.1696695998531 403.5546664843181 864.9405687284312 403.5546664843181L864.9405687284312 403.5546664843181Q862.8167548815225 403.5546664843181 860.3088470410238 403.4642914270029Q857.7783454361963 403.3739163696876 856.1515944045216 403.21576001938587L856.1515944045216 403.21576001938587Q855.9934380542198 405.8140429171998 855.8352817039181 408.34454452202726Q855.6545315892876 410.8750461268547 855.6545315892876 412.9762662094347L855.6545315892876 412.9762662094347Q855.6545315892876 421.76524053334435 858.9080336526372 426.73586868568407Q862.1615357159868 431.68390307369486 870.7923536895947 431.68390307369486L870.7923536895947 431.68390307369486Q877.7964206315279 431.68390307369486 883.3092991277592 428.3626197173588Q888.8447713883193 425.018742596694 891.9401171013672 418.8280511705982L891.9401171013672 418.8280511705982Q894.2220872985777 419.4832703361339 895.035462814415 421.44892783274094Q895.8488383302524 423.39199156501917 895.8488383302524 425.5158054119279L895.8488383302524 425.5158054119279Q895.8488383302524 430.39605850695233 892.437179916601 434.9374051370445Q889.002927738621 439.50134553146546 882.4959236119219 442.4159411298828Q875.9889194852226 445.35313049262896 866.7254761104077 445.35313049262896ZM857.2812826209624 395.2401612113136L857.2812826209624 395.2401612113136Q862.8167548815225 395.2401612113136 868.2618520847673 394.11047299487274Q873.7295430523409 392.98078477843194 878.2708896824331 390.4502831736045Q882.834830076854 387.91978156877695 885.5234880319832 383.9432790469052Q888.1895522227836 379.96677652503354 888.1895522227836 374.58946061477513L888.1895522227836 374.58946061477513Q888.1895522227836 369.86736387005243 885.9979570828884 367.5176123798555Q883.8063619429931 365.1452671253298 879.7394843638061 365.1452671253298L879.7394843638061 365.1452671253298Q875.1755439693852 365.1452671253298 871.3571977978152 367.99208143076066Q867.5388516262451 370.83889573619155 864.7824123781295 375.4028361306125Q862.0033793656851 379.96677652503354 860.1280969263933 385.16334232066134Q858.2754082514302 390.35990811628915 857.2812826209624 395.2401612113136ZM964.8276008261298 445.6694431932324L964.8276008261298 445.6694431932324Q957.5072211835932 445.6694431932324 951.7232175154161 444.856067677395Q945.939213847239 444.0426921615576 941.8723362680521 442.59669124451335Q937.805458688865 441.1280965631403 935.8623949565867 439.50134553146546L935.8623949565867 439.50134553146546Q937.6473023385633 437.53568803485837 939.0255219626212 435.02778019435976Q940.4263353510078 432.4972785895323 941.6463986247638 429.085620175881Q942.8664618985199 425.6739617622297 943.6798374143573 420.951865017507L943.6798374143573 420.951865017507L954.7281881711488 364.17373525919066Q956.1967828525219 356.03998010081665 959.6988163234884 351.97310252162964Q963.200849794455 347.90622494244263 970.6793857872933 347.90622494244263L970.6793857872933 347.90622494244263Q975.2207324173854 347.90622494244263 977.9093903725146 349.6911323244192Q980.5980483276437 351.4986334707245 981.0951111428777 354.0969163685384L981.0951111428777 354.0969163685384Q976.8474834490603 356.19813645111833 975.4692638250024 360.4457641449359Q974.0910442009446 364.6707980744246 973.1195123348054 368.73767565361163L973.1195123348054 368.73767565361163L970.5212294369916 381.5935275567083L977.99976542983 381.41277744207775Q987.7602716198787 381.09646474147434 993.6120565810422 378.1592753787282Q999.4638415422057 375.24467978031083 1002.1524994973349 370.2062703349847Q1004.8411574524641 365.1452671253298 1004.6830011021623 359.13532581386454L1004.6830011021623 359.13532581386454Q1004.6830011021623 350.0300387893514 997.1140900520088 345.46609839493044Q989.5451790018552 340.9247517648383 974.7462633664802 340.9247517648383L974.7462633664802 340.9247517648383Q967.0869772590115 340.9247517648383 959.5406599731866 342.70965914681483Q951.9717489230331 344.4945665287913 945.7132762039508 348.3129127003614Q939.4322097205397 352.1312588719313 935.7042386062851 358.48010664832884Q931.9536737277015 364.8289544247263 931.9536737277015 373.93424144923944L931.9536737277015 373.93424144923944Q931.7955173773998 378.3400254933587 932.7670492435388 382.000215314627Q933.7385811096781 385.6604051358953 936.3594577718208 390.35990811628915L936.3594577718208 390.35990811628915Q934.7327067401459 391.8285027976623 932.3603614856202 392.57409702051325Q930.0106099954232 393.29709747903536 927.7286397982127 393.29709747903536L927.7286397982127 393.29709747903536Q923.3454495184224 393.29709747903536 920.0015723977574 391.01512728182485Q916.6576952770927 388.7331570846144 914.8050066021297 384.50812315512565Q912.9297241628378 380.28308922563696 912.9297241628378 374.58946061477513L912.9297241628378 374.58946061477513Q912.9297241628378 362.8858906924481 920.5664165059779 353.03500944508403Q928.2257026134467 343.18412819771993 942.617930490903 337.1741868862547Q957.0101583683592 331.16424557478945 977.3445462642942 331.16424557478945L977.3445462642942 331.16424557478945Q987.602115269577 331.16424557478945 995.9618080712391 332.85877789945073Q1004.3440946372301 334.5759039884408 1010.3766297130242 337.89718734477685Q1016.3865710244895 341.2410644654417 1019.5496980305238 346.2794739107678Q1022.7354188008869 351.31788335609394 1022.7354188008869 358.0056375974237L1022.7354188008869 358.0056375974237Q1022.7354188008869 363.8574225585872 1020.0467608457577 369.05398835421505Q1017.3581028906285 374.2731479141717 1012.4778497956041 378.3400254933587Q1007.5975967005797 382.4069030725457 1000.4353734083448 385.0051859703596L1000.4353734083448 385.0051859703596Q1006.1290020192066 386.6319370020344 1010.5347860633258 389.7272827150823Q1014.9179763431164 392.8000346638014 1017.4484779479438 397.6802877588258Q1019.9563857884425 402.56054085385017 1019.640073087839 409.06754498054937L1019.640073087839 409.06754498054937Q1019.3237603872356 418.5117384699948 1014.7598199928145 425.4254303546127Q1010.1958795983937 432.33912223923056 1002.5591872552536 436.81268757633626Q994.9224949121136 441.28625291344196 985.1619887220647 443.4778480533372Q975.401482532016 445.6694431932324 964.8276008261298 445.6694431932324ZM968.2392592397811 434.9374051370445L968.2392592397811 434.9374051370445Q978.1579217801316 434.9374051370445 985.1619887220647 431.5257467233932Q992.1434618996691 428.1140883097419 995.9618080712391 422.01377194096136Q999.802748007138 415.91345557218085 999.802748007138 408.254169464712L999.802748007138 408.254169464712Q999.802748007138 398.83256973959544 992.3016182499709 395.33053626862886Q984.8230822571325 391.8285027976623 968.3974155900828 391.5121900970588L968.3974155900828 391.5121900970588L961.5740987627802 426.64549362836874Q960.9188795972445 429.58268299111495 959.9473477311053 431.5257467233932Q958.9532221006375 433.4688104556714 957.8235338841966 434.6210924364411L957.8235338841966 434.6210924364411Q960.1055040814072 434.77924878674276 962.7037869792209 434.869623844058Q965.3020698770349 434.9374051370445 968.2392592397811 434.9374051370445ZM1054.1181574536133 445.35313049262896L1054.1181574536133 445.35313049262896Q1045.8262459449375 445.35313049262896 1040.6974614422961 441.3766279707572Q1035.5912707039836 437.3775316845567 1033.2189254494579 430.4638397999388Q1030.869173959261 423.55014791532085 1030.869173959261 414.60301724110946L1030.869173959261 414.60301724110946Q1030.869173959261 402.56054085385017 1034.1226760226104 391.9188778549775Q1037.3761780859602 381.2546210917761 1043.4764944547405 373.12086593340206Q1049.576810823521 364.98711077502804 1057.7105659818951 360.4457641449359Q1065.8443211402691 355.8818237505149 1075.604827330318 355.8818237505149L1075.604827330318 355.8818237505149Q1083.5804261383903 355.8818237505149 1092.346806697971 359.2934821641662L1092.346806697971 359.2934821641662L1108.7950671293497 357.1922620815863L1095.7810588759512 425.17689894699566Q1095.6003087613208 426.64549362836874 1095.2839960607173 428.588557360647Q1094.9676833601138 430.55421485725407 1094.9676833601138 432.02280953862714L1094.9676833601138 432.02280953862714Q1094.9676833601138 434.46293608613934 1096.18774663387 435.9089370031836Q1097.407809907626 437.3775316845567 1100.00609280544 437.53568803485837L1100.00609280544 437.53568803485837Q1099.1927172896026 440.31472104730284 1097.3174348503107 442.0092533719641Q1095.442152411019 443.72637946095415 1093.092400920822 444.5397549767916Q1090.7200556662963 445.35313049262896 1087.805460067879 445.35313049262896L1087.805460067879 445.35313049262896Q1083.3996760237596 445.35313049262896 1080.3269240750406 443.00337900243204Q1077.2315783619927 440.63103374790626 1076.7345155467588 436.08968711781415L1076.7345155467588 436.08968711781415Q1072.50948161727 440.15656469700116 1066.725477949093 442.75484759481503Q1060.9640680452449 445.35313049262896 1054.1181574536133 445.35313049262896ZM1061.280380745848 435.5926243025802L1061.280380745848 435.5926243025802Q1067.471072171944 435.5926243025802 1071.289418343514 431.5257467233932Q1075.107764515084 427.4588691442061 1077.3897347122945 421.35855277542566Q1079.671704909505 415.25823640664515 1080.8013931259459 409.56460779578333L1080.8013931259459 409.56460779578333L1087.9636164181807 370.68073938588986Q1084.7101143548311 368.08245648807593 1081.2080808838646 366.8623932143198Q1077.706047412898 365.64232994056374 1074.7914518144805 365.64232994056374L1074.7914518144805 365.64232994056374Q1069.7530423691544 365.64232994056374 1065.753946082954 368.5795193033099Q1061.7774435610822 371.49411490172724 1058.7724729053496 376.53252434705337Q1055.744908485288 381.5935275567083 1053.7114696956946 388.25868803370923Q1051.678030906101 394.9238485107102 1050.706499039962 402.49275956086376Q1049.734967173823 410.06167061101735 1049.734967173823 417.69836295415735L1049.734967173823 417.69836295415735Q1049.734967173823 425.17689894699566 1052.175093721335 430.39605850695233Q1054.6152202688472 435.5926243025802 1061.280380745848 435.5926243025802ZM1135.2975526870516 442.0996284292794L1116.273603122188 444.0426921615576L1132.541113438936 359.13532581386454L1147.9952482398467 357.1922620815863L1146.0295907432396 371.8330213666595Q1149.1249364562873 364.8289544247263 1155.315627882383 360.3553890876206Q1161.4837255441503 355.8818237505149 1169.143011651619 355.8818237505149L1169.143011651619 355.8818237505149Q1177.1186104596914 355.8818237505149 1180.7788002809598 360.6039204952376Q1184.4389901022278 365.3260172399603 1184.4389901022278 372.14933406726294L1184.4389901022278 372.14933406726294Q1184.4389901022278 380.28308922563696 1180.0332060581086 386.13487418680046Q1175.6500157783182 391.98665914796396 1168.4877924860834 391.98665914796396L1168.4877924860834 391.98665914796396Q1166.544728753805 391.98665914796396 1164.5112899642118 391.3540337467571Q1162.477851174618 390.6988145812214 1161.3255691938484 389.0720635495466L1161.3255691938484 389.0720635495466Q1163.4493830407573 386.2930305371022 1164.7372276074998 382.31652801523046Q1166.047665938571 378.3400254933587 1166.047665938571 375.0865234300091L1166.047665938571 375.0865234300091Q1166.047665938571 371.9911777169612 1164.6694463145132 370.2062703349847Q1163.2912266904555 368.39876918867935 1160.1958809774076 368.39876918867935L1160.1958809774076 368.39876918867935Q1156.2871597485223 368.39876918867935 1153.349970385776 371.2455834941103Q1150.4353747873588 374.0923977995412 1148.4697172907518 378.4981818436604Q1146.5266535584735 382.8813721234509 1145.3065902847175 387.85200027579054Q1144.0865270109612 392.8000346638014 1143.2731514951238 396.8669122429884L1143.2731514951238 396.8669122429884L1135.2975526870516 442.0996284292794ZM1206.0612225649054 474.318336362172L1206.0612225649054 474.318336362172Q1199.3960620879045 474.318336362172 1193.544277126741 473.41458578901927Q1187.6924921655775 472.5108352158667 1183.286708121458 470.4096151332867Q1178.9035178416677 468.28580128637793 1176.4633912941556 465.1226742803436Q1174.0232647466435 461.9369535099804 1174.0232647466435 457.3956068798883L1174.0232647466435 457.3956068798883Q1174.181421096945 452.0182909696299 1177.276766809993 448.7647889062803Q1180.3721125230409 445.5112868429307 1186.0657411339027 445.5112868429307L1186.0657411339027 445.5112868429307Q1189.3192431972525 445.5112868429307 1192.0756824453679 446.66356882370036Q1194.8321216934837 447.79325704014116 1196.9559355403924 450.2333835876534L1196.9559355403924 450.2333835876534Q1195.645497209321 451.2049154537925 1194.8321216934837 452.76388519248087Q1194.0187461776463 454.3002611668404 1194.0187461776463 456.4240750137492L1194.0187461776463 456.4240750137492Q1194.0187461776463 460.80726529353956 1198.1759988141484 462.7503290258178Q1202.3332514506508 464.7159865224249 1210.6251629593266 464.7159865224249L1210.6251629593266 464.7159865224249Q1216.1606352198864 464.7159865224249 1221.763888773433 462.9988604334348Q1227.3671423269795 461.3043281087736 1231.0273321482478 457.55376323019Q1234.6875219695162 453.8031983516064 1234.6875219695162 447.79325704014116L1234.6875219695162 447.79325704014116Q1234.8682720841466 442.4159411298828 1229.5813312312036 441.1958778561267Q1224.2943903782605 439.9758145823706 1212.2519139910012 439.9758145823706L1212.2519139910012 439.9758145823706Q1205.0896906987664 439.9758145823706 1199.8027498458232 438.75575130861455Q1194.51580899288 437.53568803485837 1191.7593697447646 434.869623844058Q1188.98033673232 432.1809658889289 1188.98033673232 427.6170254945079L1188.98033673232 427.6170254945079Q1189.1384930826218 422.8949287497852 1192.3919951459714 418.2632070623778Q1195.645497209321 413.63148537497034 1200.7065004189758 410.53613966192245L1200.7065004189758 410.53613966192245Q1194.51580899288 407.77970041380684 1191.1041505792289 402.7412909684807Q1187.6924921655775 397.6802877588258 1187.6924921655775 390.20175176598747L1187.6924921655775 390.20175176598747Q1187.6924921655775 378.8144945442639 1193.047214311507 371.2455834941103Q1198.4245302217655 363.6992662082855 1207.4394421889633 359.79054497940024Q1216.47694792049 355.8818237505149 1227.050829626376 355.8818237505149L1227.050829626376 355.8818237505149Q1231.9310827214008 355.8818237505149 1235.1845847847503 356.5370429160506Q1238.4380868480998 357.1922620815863 1241.0363697459138 357.75710618980673Q1243.6346526437273 358.3219502980271 1246.4136856561722 358.3219502980271L1246.4136856561722 358.3219502980271Q1253.575908948407 358.3219502980271 1256.8294110117565 354.97807317736226Q1260.0829130751063 351.6567898210262 1260.0829130751063 346.9346930763035L1260.0829130751063 346.9346930763035Q1260.0829130751063 343.18412819771993 1257.6427865275941 339.29800073316346L1257.6427865275941 339.29800073316346Q1259.7440066101738 337.6712497014887 1262.1841331576861 336.6093427780343Q1264.6242597051983 335.54743585457993 1267.2225426030122 335.54743585457993L1267.2225426030122 335.54743585457993Q1270.973107481596 335.54743585457993 1273.0969213285045 338.0779374594074Q1275.1981414110846 340.58584529990605 1275.1981414110846 344.4945665287913L1275.1981414110846 344.4945665287913Q1275.1981414110846 349.53297597411745 1272.283545812667 354.1646976615249Q1269.346356449921 358.8190131132611 1264.1497906542932 361.9821401192954Q1258.9306310943366 365.1452671253298 1252.2654706173357 366.1393927557977L1252.2654706173357 366.1393927557977Q1253.8922216490105 368.73767565361163 1254.795972222163 371.9911777169612Q1255.6771290309869 375.24467978031083 1255.6771290309869 379.1534010091961L1255.6771290309869 379.1534010091961Q1255.6771290309869 389.88543906538405 1250.390188178044 397.52213140852405Q1245.1032473251007 405.1814175159929 1236.156116650889 409.15792003786464Q1227.208985976678 413.1344225597364 1216.1606352198864 413.1344225597364L1216.1606352198864 413.1344225597364Q1214.5338841882117 413.1344225597364 1212.9749144495233 413.0666412667499Q1211.4385384751638 412.9762662094347 1209.811787443489 412.81810985913296L1209.811787443489 412.81810985913296Q1208.185036411814 413.9477980755738 1207.0327544310444 415.50676781426216Q1205.9030662146038 417.04314378862165 1205.9030662146038 419.4832703361339L1205.9030662146038 419.4832703361339Q1205.9030662146038 422.8949287497852 1209.6536310931874 423.6405229726362Q1213.381602207442 424.3635234311583 1220.8601382002803 424.3635234311583L1220.8601382002803 424.3635234311583L1229.9880189891223 424.3635234311583Q1242.3468080769849 424.3635234311583 1247.79190528023 428.9952451185657Q1253.2370024834745 433.64956057030196 1253.2370024834745 441.6025656140454L1253.2370024834745 441.6025656140454Q1253.2370024834745 449.7363207724194 1248.9215934966705 455.83663714119996Q1244.6287782741956 461.9369535099804 1237.7150863895777 466.0038310891674Q1230.8013945049597 470.0707086683544 1222.4191079389686 472.1945225152632Q1214.0368213729778 474.318336362172 1206.0612225649054 474.318336362172ZM1218.9170744680023 405.0006674013624L1218.9170744680023 405.0006674013624Q1225.7403912953048 405.0006674013624 1229.8976439318071 400.9337898221754Q1234.0548965683092 396.8669122429884 1235.9979603005877 390.9473459888384Q1237.9410240328657 385.0051859703596 1237.9410240328657 379.31155735949784L1237.9410240328657 379.31155735949784Q1237.9410240328657 372.80455323279864 1234.6875219695162 368.5795193033099Q1231.4340199061667 364.33189160949235 1224.4525467285623 364.33189160949235L1224.4525467285623 364.33189160949235Q1219.2333871686055 364.33189160949235 1215.5731973473373 366.5460805137164Q1211.9130075260691 368.73767565361163 1209.6536310931874 372.55602182518163Q1207.371660895977 376.37436799675163 1206.3097539725222 381.2546210917761Q1205.2478470490682 386.13487418680046 1205.2478470490682 391.1732836321266L1205.2478470490682 391.1732836321266Q1205.2478470490682 397.6802877588258 1208.84025557735 401.3404775800941Q1212.4100703413028 405.0006674013624 1218.9170744680023 405.0006674013624ZM1291.804558192765 445.35313049262896L1291.804558192765 445.35313049262896Q1283.4900529197603 445.35313049262896 1278.3838621814475 441.3766279707572Q1273.2550776788062 437.3775316845567 1270.8827324242804 430.4638397999388Q1268.5329809340835 423.55014791532085 1268.5329809340835 414.60301724110946L1268.5329809340835 414.60301724110946Q1268.5329809340835 402.56054085385017 1271.7864829974333 391.9188778549775Q1275.0399850607828 381.2546210917761 1281.1403014295634 373.12086593340206Q1287.240617798344 364.98711077502804 1295.3743729567177 360.4457641449359Q1303.5081281150917 355.8818237505149 1313.2686343051405 355.8818237505149L1313.2686343051405 355.8818237505149Q1321.2442331132129 355.8818237505149 1330.0332074371227 359.2934821641662L1330.0332074371227 359.2934821641662L1346.4588741041725 357.1922620815863L1333.444865850774 425.17689894699566Q1333.2867095004722 426.64549362836874 1332.94780303554 428.588557360647Q1332.6314903349366 430.55421485725407 1332.6314903349366 432.02280953862714L1332.6314903349366 432.02280953862714Q1332.6314903349366 434.46293608613934 1333.8515536086925 435.9089370031836Q1335.0716168824488 437.3775316845567 1337.6698997802625 437.53568803485837L1337.6698997802625 437.53568803485837Q1336.8565242644254 440.31472104730284 1334.9812418251336 442.0092533719641Q1333.1059593858417 443.72637946095415 1330.7562078956446 444.5397549767916Q1328.406456405448 445.35313049262896 1325.4692670427016 445.35313049262896L1325.4692670427016 445.35313049262896Q1321.0860767629113 445.35313049262896 1317.9907310498634 443.00337900243204Q1314.8953853368153 440.63103374790626 1314.3983225215816 436.08968711781415L1314.3983225215816 436.08968711781415Q1310.1732885920928 440.15656469700116 1304.4118786882445 442.75484759481503Q1298.6278750200674 445.35313049262896 1291.804558192765 445.35313049262896ZM1298.944187720671 435.5926243025802L1298.944187720671 435.5926243025802Q1305.1348791467667 435.5926243025802 1308.9532253183365 431.5257467233932Q1312.7715714899068 427.4588691442061 1315.053541687117 421.35855277542566Q1317.3355118843274 415.25823640664515 1318.4652001007685 409.56460779578333L1318.4652001007685 409.56460779578333L1325.6274233930035 370.68073938588986Q1322.3739213296537 368.08245648807593 1318.8718878586872 366.8623932143198Q1315.3924481520494 365.64232994056374 1312.4552587893031 365.64232994056374L1312.4552587893031 365.64232994056374Q1307.416849343977 365.64232994056374 1303.4177530577767 368.5795193033099Q1299.4412505359048 371.49411490172724 1296.4362798801722 376.53252434705337Q1293.4313092244397 381.5935275567083 1291.397870434846 388.25868803370923Q1289.3644316452524 394.9238485107102 1288.3703060147845 402.49275956086376Q1287.3987741486453 410.06167061101735 1287.3987741486453 417.69836295415735L1287.3987741486453 417.69836295415735Q1287.3987741486453 425.17689894699566 1289.8389006961577 430.39605850695233Q1292.27902724367 435.5926243025802 1298.944187720671 435.5926243025802ZM1365.1665109684325 445.35313049262896L1365.1665109684325 445.35313049262896Q1359.9473514084757 445.35313049262896 1357.0327558100585 442.4159411298828Q1354.0955664473122 439.50134553146546 1354.0955664473122 434.2821859715088L1354.0955664473122 434.2821859715088Q1354.0955664473122 432.33912223923056 1354.4344729122445 429.58268299111495Q1354.7507856128482 426.8036499786705 1355.2478484280819 423.79867932293786Q1355.7223174789872 420.79370866720524 1356.2871615872077 418.10505071207604Q1356.8745994597568 415.4163927569469 1357.1909121603603 413.47332902466866L1357.1909121603603 413.47332902466866L1368.2618566814804 359.13532581386454L1386.78874343111 357.1922620815863L1373.1421097765049 425.17689894699566Q1372.9613596618742 426.48733727806706 1372.645046961271 428.52077606766056Q1372.3287342606675 430.55421485725407 1372.3287342606675 432.02280953862714L1372.3287342606675 432.02280953862714Q1372.3287342606675 434.46293608613934 1373.5487975344236 435.9089370031836Q1374.7688608081796 437.3775316845567 1377.2089873556915 437.53568803485837L1377.2089873556915 437.53568803485837Q1376.214861725224 441.6025656140454 1372.7354220185862 443.4778480533372Q1369.2333885476196 445.35313049262896 1365.1665109684325 445.35313049262896ZM1381.5921776354821 344.81087922939474L1381.5921776354821 344.81087922939474Q1376.3956118398544 344.81087922939474 1372.9613596618742 342.3029713888961Q1369.5497012482228 339.7724697840686 1369.5497012482228 334.7340603387425L1369.5497012482228 334.7340603387425Q1369.5497012482228 329.35674442848415 1373.1421097765049 326.8488365879855Q1376.7119245404579 324.318334983158 1381.9084903360858 324.318334983158L1381.9084903360858 324.318334983158Q1387.1276498960424 324.318334983158 1390.5393083096938 326.8488365879855Q1393.9509667233451 329.35674442848415 1393.9509667233451 334.4177476381391L1393.9509667233451 334.4177476381391Q1393.9509667233451 339.7724697840686 1390.381151959392 342.3029713888961Q1386.78874343111 344.81087922939474 1381.5921776354821 344.81087922939474ZM1455.7675059269873 445.35313049262896L1455.7675059269873 445.35313049262896Q1450.7290964816611 445.35313049262896 1447.7241258259287 442.5063161871981Q1444.7191551701958 439.65950188176714 1444.7191551701958 433.152497755068L1444.7191551701958 433.152497755068Q1444.7191551701958 429.58268299111495 1445.7584683293217 423.8890543802531Q1446.820375252776 418.19542576939136 1448.288969934149 411.7562029356786Q1449.7575646155221 405.33957386629464 1451.2261592968953 398.9907260898972Q1452.6721602139396 392.64187831349966 1453.7340671373938 387.51309381085827Q1454.7959740608483 382.4069030725457 1454.7959740608483 379.4697137097995L1454.7959740608483 379.4697137097995Q1454.7959740608483 374.0923977995412 1452.0395348127327 371.2455834941103Q1449.2605018002882 368.39876918867935 1444.7191551701958 368.39876918867935L1444.7191551701958 368.39876918867935Q1438.3703073937986 368.39876918867935 1433.9645233496794 372.80455323279864Q1429.5813330698888 377.18774351258907 1426.8248938217735 383.78512269660354Q1424.0458608093288 390.35990811628915 1422.758016242586 396.8669122429884L1422.758016242586 396.8669122429884L1413.9690419186768 442.0996284292794L1395.419561404718 444.0426921615576L1412.0033844220698 359.13532581386454L1427.45751922298 357.1922620815863L1425.514455490702 371.8330213666595Q1429.897645770492 364.0155789088889 1437.218025413029 359.9487013297019Q1444.5384050555656 355.8818237505149 1452.6721602139396 355.8818237505149L1452.6721602139396 355.8818237505149Q1462.6134165186188 355.8818237505149 1467.8099823142468 361.0106082531563Q1473.0065481098745 366.1393927557977 1473.0065481098745 375.4028361306125L1473.0065481098745 375.4028361306125Q1473.0065481098745 379.96677652503354 1472.0350162437353 385.9767178364987Q1471.0634843775963 391.98665914796396 1469.527108403237 398.74219468228017Q1467.9681386645484 405.4977302165963 1466.4995439831755 411.84657799299384Q1465.053543066131 418.19542576939136 1463.9916361426767 423.39199156501917Q1462.9297292192223 428.588557360647 1462.9297292192223 431.5257467233932L1462.9297292192223 431.5257467233932Q1462.9297292192223 433.9658732709054 1463.9012610853613 435.5926243025802Q1464.8727929515003 437.219375334255 1467.8099823142468 437.53568803485837L1467.8099823142468 437.53568803485837Q1466.8384504481076 441.6025656140454 1463.4267920344564 443.4778480533372Q1459.9925398564762 445.35313049262896 1455.7675059269873 445.35313049262896Z " fill="#262223" transform="matrix(0.5940231790832796,0,0,0.5940231790832796,0,62.79562756527861)"/></g></svg>